<svg aria-hidden="true" style="position: absolute; width: 0; height: 0; overflow: hidden;" version="1.1" xmlns="http://www.w3.org/2000/svg" xmlns:xlink="http://www.w3.org/1999/xlink">
<defs>
<symbol id="icon-bose-logo-2" viewBox="0 0 195 24">
<path fill="#e7e7e7" style="fill: var(--color1, #e7e7e7)" d="M157.964 3.785h33.711l3.327-3.776h-48.275l-13.395 22.834h31.284l2.247-3.776h-17.889l3.416-5.753h17.889l2.159-3.776h-17.801l3.327-5.753zM132.163 9.539h-13.305l2.157-3.686c0.899-1.528 1.708-2.068 3.057-2.068s1.798 1.079 1.079 2.427h13.574l1.349-2.427c0.989-1.798 0.989-3.776-1.438-3.776h-23.913c-2.157 0-3.866 0.27-5.124 2.337l-4.225 7.192c-1.168 2.068-1.078 3.776 1.798 3.776h13.754l-2.247 3.956c-0.629 1.079-1.439 1.798-3.326 1.798-1.618 0-1.528-1.079-0.809-2.157h-13.485l-1.618 2.697c-0.989 1.708-0.18 3.236 2.157 3.236h23.733c2.157 0 4.045-0.989 5.124-2.787l4.045-6.742c0.899-1.708 0.45-3.776-2.337-3.776z"></path>
<path fill="#e7e7e7" style="fill: var(--color1, #e7e7e7)" d="M189.917 4.451c-1.096 0-1.986 0.862-1.986 1.916 0 1.075 0.89 1.938 1.986 1.938 1.092 0 1.977-0.862 1.977-1.938 0-1.054-0.885-1.916-1.977-1.916zM189.917 7.928c-0.895 0-1.609-0.682-1.609-1.561 0-0.852 0.714-1.539 1.609-1.539 0.885 0 1.6 0.688 1.6 1.539 0 0.879-0.716 1.561-1.6 1.561zM101.507 0.010h-20.317c-2.787 0-6.383 0-8.54 3.776l-8.99 15.282c-1.259 2.068-0.18 3.776 2.157 3.776h23.643c2.427 0 3.955-0.719 5.843-3.776l8.99-15.282c1.168-1.978-0.629-3.776-2.787-3.776zM90.090 5.853l-6.742 11.417c-0.899 1.618-1.708 1.798-3.776 1.798s-2.607-0.719-1.978-1.798l6.832-11.417c0.989-1.708 2.157-2.068 3.865-2.068s2.697 0.539 1.798 2.068zM65.908 0.010h-26.070l-11.237 19.058h-24.812l-3.789 3.776h53.862c3.326 0 4.405-1.618 5.124-2.877l2.697-4.675c0.719-1.259 0.719-2.697-0.719-3.506 1.441 0 3.416-0.989 4.585-3.057l2.697-4.585c1.348-2.248-0.27-4.135-2.337-4.135zM52.513 15.382l-1.349 2.157c-0.36 0.719-0.989 1.528-2.517 1.528h-6.652l3.418-5.753h6.471c1.169 0 1.169 1.079 0.629 2.067zM58.176 5.853l-1.349 2.157c-0.36 0.719-0.989 1.528-2.517 1.528h-6.652l3.416-5.753h6.472c1.169 0 1.169 1.079 0.63 2.068z"></path>
<path fill="#e7e7e7" style="fill: var(--color1, #e7e7e7)" d="M190.932 5.865c0-0.18-0.083-0.371-0.246-0.464-0.169-0.093-0.354-0.104-0.54-0.104h-0.968v2.156h0.329v-0.993h0.388l0.633 0.993h0.377l-0.672-0.993c0.393-0.011 0.699-0.169 0.699-0.595zM189.867 6.192h-0.36v-0.65h0.573c0.279 0 0.524 0.038 0.524 0.317 0 0.388-0.424 0.333-0.737 0.333z"></path>
</symbol>

<symbol id="icon-hamburger" viewBox="0 0 41 24">
<path fill="#fff" style="fill: var(--color1, #fff)" opacity="0.8" d="M40.615 23.118h-40.615v-3.589h40.615v3.589zM40.615 14.145h-40.615v-3.589h40.615v3.589zM40.615 5.172h-40.615v-3.589h40.615v3.589z"></path>
</symbol>
</defs>
</svg>
